Patient4_TMGait_0pt4_03_left_07_EMG.mot
version=1
nRows=40
nColumns=33
inDegrees=no
endheader
time	1LAddLong	2LGlutMax	3LGlutMed	4LIliopsoas	5LSemiMemb	6LBicFemLong	7LRecFem	8LVastMed	9LVastLat	10LGasMed	11LTibAnt	12lTibPost	13LPeroneusLong	14LSol	15LExtDigLong	16LFlexDigLong	17RAddLong	18RGlutMax	19RGlutMed	20RIliopsoas	21RSemiMemb	22RBicFemLong	23RRecFem	24RVastMed	25RVastLat	26RGasMed	27RTibAnt	28RTibPost	29RPeroneusLong	30RSol	31RExtDigLong	32RFlexDigLong
8.75	0.003815	0.37186	-0.032806	-0.004883	-0.005188	-0.027161	0.020447	0.020905	-0.2536	-0.022278	-0.082397	0.016022	0.022888	-0.075684	-0.59937	-0.071259	0.025482	-0.083466	0.18875	-0.076752	-0.014801	-0.034027	-0.085754	-0.040741	0.02243	-0.028534	0.023041	-0.028076	-0.84824	0.14923	0	-0.017548
8.751	0.005188	0.36209	-0.022583	-0.003052	-0.001373	-0.010834	-0.002289	0.007629	-0.23071	-0.023499	0.090027	0.008087	0.034332	-0.10056	-0.23941	-0.080566	0.030823	-0.027008	-0.31036	-0.080261	-0.029907	-0.023041	-0.12756	-0.077972	0.085449	-0.005646	0.090027	-0.034943	0.44296	-0.036621	-0.00061	-0.009308
8.752	-0.002441	0.33203	-0.030212	-0.007782	0.002594	0.014954	0.019989	0.005646	-0.23621	0.007629	0.090179	0.000763	0.034943	-0.18921	-0.28015	-0.061035	0.011139	0.054321	0.25116	-0.036316	-0.021667	-0.06073	-0.10361	0.002899	-0.013123	-0.007477	0.051422	0.057526	0.56198	-0.13397	0.00061	-0.012665
8.753	0.002136	0.30762	-0.023651	0.004272	-0.015564	0.009155	-0.012054	0.003967	-0.2211	0.038452	0.051727	-0.001068	0.007935	-0.19165	-0.13565	-0.058441	0.015411	0.012207	0.014191	0.082397	-0.024109	-0.044556	0.084229	0.035553	-0.13184	-0.011597	0.070953	0.042267	0.57693	-0.050354	-0.002136	-0.018921
8.754	-0.001984	0.27893	-0.016632	0.029449	-0.01709	0.028687	0.041504	-0.00824	-0.20142	0.056915	-0.12222	0.003815	-0.025024	-0.12421	0.21362	-0.071106	0.019226	0.11002	1.7795	0.042114	-0.033417	0.010376	0.16739	0.06485	-0.052338	-0.020294	0.06424	0.000305	0.36591	-0.13794	-0.004883	-0.00824
8.755	-0.006104	0.24582	-0.009308	0.028687	-0.013428	0.04715	0.17944	-0.018158	-0.18646	0.050812	-0.15442	0	-0.028534	-0.14755	0.13641	-0.062714	0.010071	0.028534	0.66162	-0.007629	-0.033112	0.028534	0.11322	0.062561	0.03067	-0.023041	-0.15533	-0.014343	0.041504	-0.08606	-0.001068	-0.011597
8.756	0.00351	0.20569	-0.010376	0.006561	-0.009308	0.055542	0.28305	-0.017548	-0.20706	0.086365	-0.039368	-0.003967	-0.055389	-0.17364	0.28198	-0.053101	-0.003967	0.005646	-0.513	0.031738	-0.021362	0.07843	-0.21332	0.10376	0.10635	-0.017395	-0.28503	-0.012054	-1.3228	-0.013733	0.000916	-0.001526
8.757	-0.003052	0.1471	0.004578	-0.007629	-0.000916	0.050812	0.32944	-0.003967	-0.21286	0.10819	0.080566	0.003815	-0.10193	-0.14236	0.072174	-0.028534	-0.00412	-0.051117	-0.93796	0.008545	-0.012817	0.044708	-0.37079	0.093231	0.07843	-0.03418	0.095825	-0.011749	0.14435	0.17532	0.010681	-0.007172
8.758	-0.005493	0.15472	-0.004883	0.005493	-0.019836	0.071106	0.37399	0.005188	-0.2066	0.072632	0.12238	-0.006866	-0.084381	-0.062408	0.21942	-0.0383	0.011902	0.011139	-0.26718	0.028229	-0.005646	-0.069885	-0.16098	0.055237	0.082855	-0.016022	0.31052	-0.005646	-0.052795	-0.044556	-0.000305	-0.001373
8.759	-0.007019	0.1004	-0.000458	0.014343	-0.008545	0.078278	0.45639	0.019073	-0.20645	0.035553	-0.003357	0.000305	-0.011292	0.084229	0.19821	-0.041351	0.01236	0.025024	-0.073395	0.057068	0.02182	0.015564	-0.007629	0.09552	0.13107	0.034637	0.097046	-0.002899	0.21744	-0.15701	0.001221	0.000763
8.76	-0.007019	0.066071	-0.000763	0.019684	-0.002899	0.071564	0.47089	-0.018311	-0.18219	-0.00412	-0.17364	0.00412	0.039825	0.076294	0.051117	-0.022736	-0.012054	0.021057	0.48416	-0.020294	0.027618	0.14008	0.013275	0.094147	0.12726	0.05188	-0.006714	-0.004578	-0.75562	-0.029755	-0.002747	-0.001221
8.761	0.000916	0.005341	0.000916	0.016632	-0.023651	0.044403	0.42023	0.019989	-0.19424	0.010071	-0.054626	0.008545	0.062103	0.076141	-0.20157	-0.00351	0.004578	0.040131	0.40283	-0.069733	0.001221	0.21927	0.19196	-0.051117	0.069122	0.067596	0.11185	-0.007477	-0.76477	0.051575	-0.000916	0.007172
8.762	-0.002441	-0.007324	0.017395	0.012207	-0.004883	0.037537	0.39673	0.005646	-0.18784	0.000305	-0.094757	0.001984	0.041351	0.078735	-0.079193	0.006714	0.02243	0.066071	-0.094452	-0.072327	0.034485	0.14145	0.26749	-0.15961	-0.074921	0.035095	0.091553	-0.007477	-0.25589	0.20203	-0.002594	-0.005493
8.763	-0.005493	0.013885	0.011749	-0.011902	-0.017395	0.007172	0.36636	0.019684	-0.16373	0.030823	0.11185	-0.001068	-0.035095	0.025024	0.55664	0.032959	0.032654	0.11505	-0.11154	-0.054932	-0.004272	-0.028381	0.31097	-0.19836	-0.17364	-0.013275	0.30884	-0.010681	-0.57816	0.12222	0.000458	0.000305
8.764	0.060272	0.012817	-0.00351	0.033722	-0.021667	-0.025024	0.31967	0.010376	-0.15198	0.050354	0.23117	0.001678	-0.053864	-0.004272	0.25131	0.021362	0.020447	0.065002	0.33249	-0.05127	-0.057983	0.03067	0.30853	-0.20584	-0.26428	-0.088501	0.23407	-0.009766	0.39352	-0.013885	-0.002289	-0.00885
8.765	0.037842	-0.016327	-0.00885	0.010529	-0.014496	-0.036316	0.34912	0.011292	-0.13825	0.028076	0.039063	-0.000763	-0.03891	-0.038757	0.026398	0.022583	-0.007172	0.078125	0.32776	0.093384	-0.10849	0.085754	0.1889	-0.10849	-0.21713	-0.09079	-0.052795	-0.004425	-0.11459	0.1033	-0.001221	-0.007324
8.766	-0.030975	-0.027771	-0.000305	-0.043182	-0.002899	-0.020905	0.39169	0.012054	-0.10468	-0.00473	-0.16419	0	0.048981	-0.11368	-0.21011	0.032043	0.007019	0.042572	0.2153	0.13001	-0.088959	0.084534	0.021973	0.069122	-0.079498	-0.057373	-0.34622	0.002289	0.081635	-0.053558	-0.003204	-0.013123
8.767	0.065002	-0.053253	0.00885	-0.00824	0.000153	-0.023193	0.43671	0.014801	-0.092163	-0.019531	-0.16159	-0.003052	0.079041	-0.083466	-0.18127	0.021973	0.017242	0.084534	0.58914	0.11093	0.015869	0.06012	0.034485	0.14832	-0.086365	0.057831	-0.29968	-0.002594	0.36285	-0.16525	0.003052	-0.011292
8.768	0.003815	-0.034027	0.01358	0.027313	-0.011139	-0.03418	0.4248	0.017395	-0.068512	0.027008	-0.065002	-0.001984	-0.042725	-0.039368	-0.077362	0.012207	0.001984	0.23239	1.1398	0.11292	0.021362	-0.029755	0.057678	0.159	-0.099945	0.001068	-0.22339	-0.00473	0.34271	0.14511	0.004578	-0.007782
8.769	0.0177	-0.053253	-0.00412	0.0177	-0.020752	-0.062714	0.47257	0.010986	-0.059814	0.063934	0.016479	0.001221	-0.1001	-0.002136	-0.25482	0.042267	-0.003204	0.19241	1.814	-0.009155	-0.006714	-0.060577	-0.02594	0.018616	0.026093	-0.010071	-0.16968	-0.023193	-0.006866	0.24246	0.001831	-0.015564
8.77	0.00473	-0.084534	-0.039673	0.00351	0.000916	-0.050201	0.50736	0.009918	-0.063934	0.049591	-0.013275	-0.003967	-0.097504	0.034943	-0.27329	0.032959	-0.005188	0.13519	1.5102	-0.079041	-0.054779	-0.009766	-0.23239	-0.010529	0.098267	0.03067	-0.061035	-0.024872	-0.28473	0.02121	-0.00824	-0.00824
8.771	0.001984	-0.043945	-0.027618	0.007782	0.004578	-0.024872	0.50552	0.01709	-0.063477	0.027313	0.049591	-0.011444	-0.089874	0.008087	-0.26794	0.028534	0.015411	0.069733	0.81345	-0.015564	0.02121	-0.096588	-0.33173	-0.13748	0.040741	0.013123	0.031891	-0.004272	0.093842	-0.091553	-0.001221	-0.006561
8.772	0.003204	-0.060272	-0.011139	-0.010681	0.022583	-0.015259	0.48325	0.012665	-0.063477	0.019379	0.091705	0.000305	-0.078125	-0.06134	-0.19882	-0.000763	0.021667	0.063019	-0.69534	0.060425	0.013275	-0.15961	-0.12619	-0.16251	-0.023499	0.012207	-0.020905	0.028229	0.53314	-0.088501	-0.001831	-0.007782
8.773	-0.010681	-0.04776	0.025787	0.000916	-0.005798	-0.003204	0.46509	0.013428	-0.034485	0.00351	0.097198	-0.013275	-0.080261	-0.13962	-0.019226	0.033569	0.023499	0.13428	-0.33371	-0.014801	-0.031433	-0.10941	-0.075378	-0.003204	0.13672	0.033112	-0.11276	-0.001678	0.35049	0.017242	-0.002289	-0.001068
8.774	-0.012512	-0.014496	0.04364	-0.015259	-0.028381	0.006714	0.46158	0.016022	-0.017548	0.007935	0.082397	-0.00946	-0.062103	-0.13458	0.10056	0.023956	0.014648	0.15259	0.44205	-0.063477	-0.10361	-0.054626	0.010529	0.097809	0.12955	0.030823	-0.087585	-0.027161	0.71793	0.16678	0.000153	0.004578
8.775	0.006256	-0.067902	-0.028534	-0.014954	-0.026093	0.024872	0.43228	0.017548	-0.00412	0.001221	0.004883	-0.011749	-0.033112	-0.10162	0.1416	0.021362	0.028534	0.07019	-0.15243	-0.00946	-0.19043	-0.07019	0.1265	0.059509	0.06012	0.022583	-0.018616	-0.11505	0.77072	0.022125	-0.003052	0.007935
8.776	-0.002747	-0.097809	-0.054169	0.01297	-0.020294	0.013885	0.43472	0.020142	0.014038	-0.012665	-0.080261	-0.011139	-0.027466	-0.0737	0.13596	0.034637	0.026703	-0.023804	0.56442	0.037384	-0.13016	-0.10071	0.098724	0.034637	0.005646	0.004883	0.11429	-0.327	-0.2858	-0.13153	0.001373	0.003204
8.777	-0.001068	-0.10529	-0.02655	0.006256	-0.001526	0.056763	0.44952	0.022125	0.00824	-0.005188	-0.11551	-0.001068	-0.065002	-0.037689	0.099945	0.011749	0.005646	-0.11993	0.63431	0.01236	0.042419	-0.21316	0.000916	0.041962	-0.041199	-0.010681	0.19394	0.21194	-1.0255	-0.11765	-0.002441	-0.007935
8.778	0.003662	-0.12665	-0.037994	0.020905	-0.004272	0.086365	0.46707	0.02182	0.016174	-0.039978	-0.074615	-0.008087	-0.08667	-0.048523	0.03006	0.009918	0.006714	-0.25482	-0.27573	0.017548	0.051422	-0.22873	-0.033264	0.05722	0.002594	-0.02182	0.14221	0.13962	-1.0497	-0.039825	0	0.003815
8.779	0.010834	-0.13657	-0.035248	0.004578	-0.020142	0.054932	0.44571	0.02121	0.032349	-0.077362	-0.007324	-0.00412	-0.091248	-0.020142	-0.007629	0.010834	-0.004578	-0.12512	-0.26016	-0.013885	0.057068	-0.12695	0.019073	-0.032501	0.006409	-0.003204	-0.11276	0.016174	-0.097351	-0.014648	0.00061	0.00061
8.78	0.005341	-0.13336	-0.036163	-0.013733	-0.019684	0.081787	0.43304	0.014801	0.045471	-0.09201	-0.024872	-0.005341	-0.039368	0.013733	0.22125	0.009308	-0.002289	-0.18082	-1.0312	-0.089417	0.087128	-0.027008	-0.1239	-0.096741	-0.00061	-0.004578	-0.11719	0.009155	0.53879	-0.10254	0.001831	-0.001373
8.781	-0.001373	-0.16953	-0.033722	-0.015259	-0.023499	0.079498	0.40802	0.011139	0.058441	-0.096283	0.053558	-0.008698	0.049133	-0.00824	-0.10101	0.016327	0.024109	-0.26321	-0.94147	-0.14145	0.063629	0.050049	-0.044403	-0.085297	-0.033417	-0.005951	-0.04425	0.010071	-0.11307	-0.2533	0	-0.007935
8.782	-0.000153	-0.14313	-0.001984	-0.014954	-0.018005	0.058136	0.41794	0.014496	0.069275	-0.033569	0.15793	0.002747	-0.016327	-0.063477	-0.028992	0.03952	0.018463	-0.15686	0.28778	-0.11536	-0.020447	0.11871	-0.013733	-0.06546	-0.043945	0.005341	-0.24017	0.000305	-0.002441	-0.050507	-0.000458	-0.000305
8.783	0.00061	-0.098877	0.00885	-0.000458	-0.016785	0.044403	0.39459	0.014038	0.069427	0.002747	0.11353	-0.002747	-0.006866	-0.087433	0.1152	0.035553	0.00885	-0.18204	0.69763	-0.016937	-0.10346	0.1358	-0.007324	-0.024109	-0.024109	0.010986	-0.38849	-0.00351	0.040894	-0.14816	-0.007782	-0.001068
8.784	0.004425	-0.11505	-0.003052	0.002289	-0.016174	0.02594	0.37888	0.014954	0.060272	0.003662	0.044403	-0.005951	0.075226	-0.027313	0.20203	0.046997	0.017548	0.00412	0.64041	0.060425	-0.019989	0.21316	-0.11322	0.019073	0.002289	-0.003662	-0.29526	-0.00885	2.4229	-0.073547	0.000916	-0.005493
8.785	-0.00061	-0.13962	-0.015106	0.023346	-0.009613	0.023346	0.37643	0.008698	0.060425	-0.029297	-0.007477	-0.002594	0.056763	0.005493	0.45319	0.05661	0.009003	-0.072174	1.2521	0.044556	0.12283	0.36774	-0.16327	0.021667	0.014801	-0.041809	0.21912	-0.005493	0.42801	-0.10651	-0.001678	-0.008545
8.786	0.011444	-0.18158	-0.012665	0.036621	-0.011597	0.010529	0.3717	0.015717	0.067139	-0.061951	0.020447	-0.002747	0.050049	0.047302	1.0468	0.06012	-0.002441	-0.21255	0.1741	0.075226	-0.072021	0.33905	-0.08316	0.018311	0.067291	-0.033417	0.23819	-0.003967	-0.47684	-0.004883	-0.002747	-0.00473
8.787	0.010071	-0.15213	-0.008392	0.018921	-0.002594	0.003662	0.35538	0.01358	0.074463	-0.12238	0.1239	0.014343	0.003204	0.0737	0.083923	0.005951	0.031128	-0.12558	-0.16556	0.091553	-0.1181	0.052185	0.12802	-0.054474	0.003967	-0.003357	0.19836	-0.012512	0.36392	0.15137	-0.001068	0.003052
8.788	0.005951	-0.15793	-0.010376	-0.013123	-0.048218	-0.007477	0.36545	0.008545	0.10208	-0.12131	-0.030212	0.006714	0.006866	0.090027	-0.42984	0.029602	0.027008	-0.18677	-0.5191	0.11124	-0.27054	-0.024719	0.21835	-0.10284	-0.062561	0.000458	0.25909	-0.012512	-1.1609	0.22873	-0.002441	-0.007782
8.789	0.006866	-0.15869	-0.015564	-0.012512	-0.003662	-0.022736	0.37781	0.010529	0.11658	-0.08194	-0.091705	0.002747	0.045471	0.14847	-0.65781	0.028381	0.00473	-0.033722	0.6897	0.07843	-0.23239	0.055237	0.24139	-0.045929	-0.054626	0.007324	0.19989	-0.00473	-1.4787	-0.03418	0.000763	-0.010529
